<?xml version="1.0" encoding="UTF-8"?>
<svg height="16px" viewBox="0 0 16 16" width="16px" xmlns="http://www.w3.org/2000/svg">
    <path d="m 2.292969 3.292969 c 0.234375 -0.234375 0.359375 -0.335938 0.707031 -0.292969 h 10 c 0.347656 -0.042969 0.472656 0.058594 0.707031 0.292969 s 0.335938 0.359375 0.292969 0.707031 v 7 c 0.042969 0.347656 -0.058594 0.472656 -0.292969 0.707031 s -0.359375 0.335938 -0.707031 0.292969 h -10 c -0.347656 0.042969 -0.472656 -0.058594 -0.707031 -0.292969 s -0.335938 -0.359375 -0.292969 -0.707031 v -7 c -0.042969 -0.347656 0.058594 -0.472656 0.292969 -0.707031 z m 0.707031 -2.292969 c -0.757812 0.042969 -1.632812 0.390625 -2.121094 0.878906 c -0.488281 0.488282 -0.8359372 1.363282 -0.878906 2.121094 v 7 c 0.0429688 0.757812 0.390625 1.632812 0.878906 2.121094 c 0.488282 0.488281 1.363282 0.835937 2.121094 0.878906 h 10 c 0.757812 -0.042969 1.632812 -0.390625 2.121094 -0.878906 c 0.488281 -0.488282 0.835937 -1.363282 0.878906 -2.121094 v -7 c -0.042969 -0.757812 -0.390625 -1.632812 -0.878906 -2.121094 c -0.488282 -0.488281 -1.363282 -0.835937 -2.121094 -0.878906 z m 0 0"/>
    <path d="m 6.5 5 h 6 v 2 h -6 z m 0 0"/>
    <path d="m 3.5 5 h 2 v 2 h -2 z m 0 0"/>
    <path d="m 3.5 8 h 6 v 2 h -6 z m 0 0"/>
    <path d="m 10.5 8 h 2 v 2 h -2 z m 0 0"/>
</svg>
