<?xml version="1.0" encoding="UTF-8"?>
<svg height="128px" viewBox="0 0 128 128" width="128px" xmlns="http://www.w3.org/2000/svg" xmlns:xlink="http://www.w3.org/1999/xlink">
    <linearGradient id="a" gradientTransform="matrix(118.863281 0 0 77 4.570313 28.210937)" gradientUnits="userSpaceOnUse" x1="0" x2="1" y1="0" y2="0">
        <stop offset="0" stop-color="#77767b"/>
        <stop offset="0.0357" stop-color="#c0bfbc"/>
        <stop offset="0.0714" stop-color="#9a9996"/>
        <stop offset="0.9286" stop-color="#9a9996"/>
        <stop offset="0.9643" stop-color="#c0bfbc"/>
        <stop offset="1" stop-color="#77767b"/>
    </linearGradient>
    <radialGradient id="b" cx="34.388" cy="235.371994" gradientTransform="matrix(0 0.100219 -1.409025 0 396.943634 86.958984)" gradientUnits="userSpaceOnUse" r="47">
        <stop offset="0"/>
        <stop offset="1" stop-opacity="0"/>
    </radialGradient>
    <path d="m 12.570312 28.210938 h 102.863282 c 4.417968 0 8 3.582031 8 8 v 61 c 0 4.417968 -3.582032 8 -8 8 h -102.863282 c -4.417968 0 -8 -3.582032 -8 -8 v -61 c 0 -4.417969 3.582032 -8 8 -8 z m 0 0" fill="url(#a)"/>
    <path d="m 12.570312 27.070312 h 102.863282 c 4.417968 0 8 3.582032 8 8 v 57.144532 c 0 4.417968 -3.582032 8 -8 8 h -102.863282 c -4.417968 0 -8 -3.582032 -8 -8 v -57.144532 c 0 -4.417968 3.582032 -8 8 -8 z m 0 0" fill="#f2f2f2"/>
    <path d="m 18.296875 35.085938 h 91.40625 c 3.3125 0 6 2.683593 6 6 v 47.398437 c 0 3.316406 -2.6875 6 -6 6 h -91.40625 c -3.3125 0 -6 -2.683594 -6 -6 v -47.398437 c 0 -3.316407 2.6875 -6 6 -6 z m 0 0" fill="url(#b)"/>
    <path d="m 18.296875 35.085938 h 91.40625 c 3.3125 0 6 2.683593 6 6 v 45.199218 c 0 3.316406 -2.6875 6 -6 6 h -91.40625 c -3.3125 0 -6 -2.683594 -6 -6 v -45.199218 c 0 -3.316407 2.6875 -6 6 -6 z m 0 0" fill="#241f31"/>
    <path d="m 20.796875 59.285156 h 33.601563 c 1.65625 0 3 1.34375 3 3 v 2.800782 c 0 1.65625 -1.34375 3 -3 3 h -33.601563 c -1.65625 0 -3 -1.34375 -3 -3 v -2.800782 c 0 -1.65625 1.34375 -3 3 -3 z m 0 0" fill="#ffffff"/>
    <path d="m 67 59.285156 h 5 c 1.65625 0 3 1.34375 3 3 v 2.800782 c 0 1.65625 -1.34375 3 -3 3 h -5 c -1.65625 0 -3 -1.34375 -3 -3 v -2.800782 c 0 -1.65625 1.34375 -3 3 -3 z m 0 0" fill="#deddda"/>
    <path d="m 84.601562 59.285156 h 22.601563 c 1.65625 0 3 1.34375 3 3 v 2.800782 c 0 1.65625 -1.34375 3 -3 3 h -22.601563 c -1.660156 0 -3 -1.34375 -3 -3 v -2.800782 c 0 -1.65625 1.339844 -3 3 -3 z m 0 0" fill="#f6f5f4"/>
    <path d="m 20.796875 74.683594 h 17.101563 c 1.65625 0 3 1.34375 3 3 v 2.800781 c 0 1.65625 -1.34375 3 -3 3 h -17.101563 c -1.65625 0 -3 -1.34375 -3 -3 v -2.800781 c 0 -1.65625 1.34375 -3 3 -3 z m 0 0" fill="#f6f5f4"/>
    <path d="m 49.398438 74.683594 h 51.203124 c 1.65625 0 3 1.34375 3 3 v 2.800781 c 0 1.65625 -1.34375 3 -3 3 h -51.203124 c -1.65625 0 -3 -1.34375 -3 -3 v -2.800781 c 0 -1.65625 1.34375 -3 3 -3 z m 0 0" fill="#c0bfbc" fill-opacity="0.678431"/>
</svg>
