<?xml version="1.0" encoding="UTF-8"?>
<svg height="128px" viewBox="0 0 128 128" width="128px" xmlns="http://www.w3.org/2000/svg" xmlns:xlink="http://www.w3.org/1999/xlink">
    <linearGradient id="a" gradientTransform="matrix(0.232143 0 0 0.223682 -8.566757 201.522095)" gradientUnits="userSpaceOnUse" x1="88.595886" x2="536.595886" y1="-449.394012" y2="-449.394012">
        <stop offset="0" stop-color="#3d3846"/>
        <stop offset="0.0385" stop-color="#59565f"/>
        <stop offset="0.0769" stop-color="#3d3846"/>
        <stop offset="0.9231" stop-color="#3d3846"/>
        <stop offset="0.962" stop-color="#59565f"/>
        <stop offset="1" stop-color="#3d3846"/>
    </linearGradient>
    <radialGradient id="b" cx="34.388" cy="235.371994" gradientTransform="matrix(0 0.091103 -1.280867 0 366.660706 85.156586)" gradientUnits="userSpaceOnUse" r="47">
        <stop offset="0"/>
        <stop offset="1" stop-opacity="0"/>
    </radialGradient>
    <path d="m 20 33 h 88 c 4.417969 0 8 3.582031 8 8 v 52 c 0 4.417969 -3.582031 8 -8 8 h -88 c -4.417969 0 -8 -3.582031 -8 -8 v -52 c 0 -4.417969 3.582031 -8 8 -8 z m 0 0" fill="url(#a)"/>
    <path d="m 20 32 h 88 c 4.417969 0 8 3.582031 8 8 v 48 c 0 4.417969 -3.582031 8 -8 8 h -88 c -4.417969 0 -8 -3.582031 -8 -8 v -48 c 0 -4.417969 3.582031 -8 8 -8 z m 0 0" fill="#5e5c64"/>
    <path d="m 23 38 h 82 c 3.3125 0 6 2.6875 6 6 v 42 c 0 3.3125 -2.6875 6 -6 6 h -82 c -3.3125 0 -6 -2.6875 -6 -6 v -42 c 0 -3.3125 2.6875 -6 6 -6 z m 0 0" fill="url(#b)"/>
    <path d="m 23 38 h 82 c 3.3125 0 6 2.6875 6 6 v 40 c 0 3.3125 -2.6875 6 -6 6 h -82 c -3.3125 0 -6 -2.6875 -6 -6 v -40 c 0 -3.3125 2.6875 -6 6 -6 z m 0 0" fill="#241f31"/>
    <path d="m 25 58 h 30 c 1.65625 0 3 1.34375 3 3 v 2 c 0 1.65625 -1.34375 3 -3 3 h -30 c -1.65625 0 -3 -1.34375 -3 -3 v -2 c 0 -1.65625 1.34375 -3 3 -3 z m 0 0" fill="#ffffff"/>
    <path d="m 67 58 h 4 c 1.65625 0 3 1.34375 3 3 v 2 c 0 1.65625 -1.34375 3 -3 3 h -4 c -1.65625 0 -3 -1.34375 -3 -3 v -2 c 0 -1.65625 1.34375 -3 3 -3 z m 0 0" fill="#deddda"/>
    <path d="m 83 58 h 20 c 1.65625 0 3 1.34375 3 3 v 2 c 0 1.65625 -1.34375 3 -3 3 h -20 c -1.65625 0 -3 -1.34375 -3 -3 v -2 c 0 -1.65625 1.34375 -3 3 -3 z m 0 0" fill="#f6f5f4"/>
    <path d="m 25 72 h 15 c 1.65625 0 3 1.34375 3 3 v 2 c 0 1.65625 -1.34375 3 -3 3 h -15 c -1.65625 0 -3 -1.34375 -3 -3 v -2 c 0 -1.65625 1.34375 -3 3 -3 z m 0 0" fill="#f6f5f4"/>
    <path d="m 51 72 h 46 c 1.65625 0 3 1.34375 3 3 v 2 c 0 1.65625 -1.34375 3 -3 3 h -46 c -1.65625 0 -3 -1.34375 -3 -3 v -2 c 0 -1.65625 1.34375 -3 3 -3 z m 0 0" fill="#c0bfbc"/>
</svg>
