<?xml version="1.0" encoding="UTF-8"?>
<svg xmlns="http://www.w3.org/2000/svg" height="16px" viewBox="0 0 16 16" width="16px"><path d="m 4.996094 9.996094 l 7 -7 l 2 2 l -7 7 h -2 z m 0 0" fill="#222222" fill-rule="evenodd"/><path d="m 14.152344 1.101562 c -0.136719 0 -0.265625 0.054688 -0.363282 0.152344 l -1.160156 1.160156 l 2.003906 2.003907 l 1.160157 -1.160157 c 0.203125 -0.203124 0.203125 -0.527343 0 -0.730468 l -1.277344 -1.273438 c -0.09375 -0.097656 -0.226563 -0.152344 -0.363281 -0.152344 z m 0 0" fill="#222222" fill-rule="evenodd"/><path d="m 3 0 c -1.644531 0 -3 1.355469 -3 3 v 9.808594 c 0 1.75 1.441406 3.191406 3.191406 3.191406 h 6.808594 c 1.644531 0 3 -1.355469 3 -3 v -5.007812 l -2 2 v 3.007812 c 0 0.5625 -0.4375 1 -1 1 h -6.808594 c -0.671875 0 -1.191406 -0.523438 -1.191406 -1.191406 v -9.808594 c 0 -0.5625 0.4375 -1 1 -1 h 4.585938 l 1.703124 1.703125 l 1.414063 -1.414063 l -1.996094 -1.996093 c -0.1875 -0.1875 -0.441406 -0.292969 -0.707031 -0.292969 z m 0 0"/></svg>
